<svg id="visual" viewBox="0 0 900 600" width="900" height="600" xmlns="http://www.w3.org/2000/svg" xmlns:xlink="http://www.w3.org/1999/xlink" version="1.1"><rect x="0" y="0" width="900" height="600" fill="#fff"></rect><defs><linearGradient id="grad1_0" x1="33.3%" y1="0%" x2="100%" y2="100%"><stop offset="20%" stop-color="#04f06a" stop-opacity="1"></stop><stop offset="80%" stop-color="#04f06a" stop-opacity="1"></stop></linearGradient></defs><defs><linearGradient id="grad1_1" x1="33.3%" y1="0%" x2="100%" y2="100%"><stop offset="20%" stop-color="#04f06a" stop-opacity="1"></stop><stop offset="80%" stop-color="#00a492" stop-opacity="1"></stop></linearGradient></defs><defs><linearGradient id="grad1_2" x1="33.3%" y1="0%" x2="100%" y2="100%"><stop offset="20%" stop-color="#005672" stop-opacity="1"></stop><stop offset="80%" stop-color="#00a492" stop-opacity="1"></stop></linearGradient></defs><defs><linearGradient id="grad1_3" x1="33.3%" y1="0%" x2="100%" y2="100%"><stop offset="20%" stop-color="#005672" stop-opacity="1"></stop><stop offset="80%" stop-color="#001220" stop-opacity="1"></stop></linearGradient></defs><defs><linearGradient id="grad2_0" x1="0%" y1="0%" x2="66.7%" y2="100%"><stop offset="20%" stop-color="#04f06a" stop-opacity="1"></stop><stop offset="80%" stop-color="#04f06a" stop-opacity="1"></stop></linearGradient></defs><defs><linearGradient id="grad2_1" x1="0%" y1="0%" x2="66.7%" y2="100%"><stop offset="20%" stop-color="#00a492" stop-opacity="1"></stop><stop offset="80%" stop-color="#04f06a" stop-opacity="1"></stop></linearGradient></defs><defs><linearGradient id="grad2_2" x1="0%" y1="0%" x2="66.7%" y2="100%"><stop offset="20%" stop-color="#00a492" stop-opacity="1"></stop><stop offset="80%" stop-color="#005672" stop-opacity="1"></stop></linearGradient></defs><defs><linearGradient id="grad2_3" x1="0%" y1="0%" x2="66.7%" y2="100%"><stop offset="20%" stop-color="#001220" stop-opacity="1"></stop><stop offset="80%" stop-color="#005672" stop-opacity="1"></stop></linearGradient></defs><g transform="translate(900, 0)"><path d="M0 378.6C-31.9 366.9 -63.7 355.3 -90.6 338.1C-117.5 320.9 -139.4 298.1 -162 280.6C-184.6 263.1 -208 250.8 -238.3 238.3C-268.6 225.8 -305.9 213.1 -327.9 189.3C-349.8 165.5 -356.3 130.5 -362.2 97.1C-368.1 63.6 -373.3 31.8 -378.6 0L0 0Z" fill="#00324c"></path><path d="M0 283.9C-23.9 275.2 -47.8 266.5 -67.9 253.6C-88.1 240.7 -104.5 223.6 -121.5 210.4C-138.5 197.3 -156 188.1 -178.7 178.7C-201.5 169.4 -229.5 159.8 -245.9 142C-262.3 124.1 -267.2 97.8 -271.7 72.8C-276.1 47.7 -280 23.9 -283.9 0L0 0Z" fill="#007c8b"></path><path d="M0 189.3C-15.9 183.5 -31.9 177.6 -45.3 169C-58.7 160.4 -69.7 149.1 -81 140.3C-92.3 131.5 -104 125.4 -119.1 119.1C-134.3 112.9 -153 106.6 -163.9 94.6C-174.9 82.7 -178.2 65.2 -181.1 48.5C-184.1 31.8 -186.7 15.9 -189.3 0L0 0Z" fill="#00cb87"></path><path d="M0 94.6C-8 91.7 -15.9 88.8 -22.6 84.5C-29.4 80.2 -34.8 74.5 -40.5 70.1C-46.2 65.8 -52 62.7 -59.6 59.6C-67.2 56.5 -76.5 53.3 -82 47.3C-87.4 41.4 -89.1 32.6 -90.6 24.3C-92 15.9 -93.3 8 -94.6 0L0 0Z" fill="#04f06a"></path></g><g transform="translate(0, 600)"><path d="M0 -378.6C31.1 -368 62.2 -357.3 93.2 -347.7C124.2 -338.1 155 -329.5 179 -310C203 -290.6 220 -260.2 233.3 -233.3C246.7 -206.4 256.4 -183 281.5 -162.5C306.5 -142 346.9 -124.6 365.7 -98C384.4 -71.4 381.5 -35.7 378.6 0L0 0Z" fill="#00324c"></path><path d="M0 -283.9C23.3 -276 46.6 -268 69.9 -260.8C93.1 -253.6 116.3 -247.1 134.2 -232.5C152.2 -217.9 165 -195.2 175 -175C185 -154.8 192.3 -137.2 211.1 -121.9C229.9 -106.5 260.2 -93.4 274.3 -73.5C288.3 -53.6 286.1 -26.8 283.9 0L0 0Z" fill="#007c8b"></path><path d="M0 -189.3C15.5 -184 31.1 -178.7 46.6 -173.9C62.1 -169.1 77.5 -164.8 89.5 -155C101.5 -145.3 110 -130.1 116.7 -116.7C123.4 -103.2 128.2 -91.5 140.7 -81.3C153.3 -71 173.5 -62.3 182.8 -49C192.2 -35.7 190.8 -17.9 189.3 0L0 0Z" fill="#00cb87"></path><path d="M0 -94.6C7.8 -92 15.5 -89.3 23.3 -86.9C31 -84.5 38.8 -82.4 44.7 -77.5C50.7 -72.6 55 -65.1 58.3 -58.3C61.7 -51.6 64.1 -45.7 70.4 -40.6C76.6 -35.5 86.7 -31.1 91.4 -24.5C96.1 -17.9 95.4 -8.9 94.6 0L0 0Z" fill="#04f06a"></path></g></svg>