<svg id="visual" viewBox="0 0 450 900" width="100%" height="100%" xmlns="http://www.w3.org/2000/svg" xmlns:xlink="http://www.w3.org/1999/xlink" version="1.1"><rect x="0" y="0" width="450" height="900" fill="#fff"></rect><defs><linearGradient id="grad1_0" x1="0%" y1="0%" x2="100%" y2="100%"><stop offset="30%" stop-color="#04f06a" stop-opacity="1"></stop><stop offset="70%" stop-color="#04f06a" stop-opacity="1"></stop></linearGradient></defs><defs><linearGradient id="grad1_1" x1="0%" y1="0%" x2="100%" y2="100%"><stop offset="30%" stop-color="#04f06a" stop-opacity="1"></stop><stop offset="70%" stop-color="#007c8b" stop-opacity="1"></stop></linearGradient></defs><defs><linearGradient id="grad1_2" x1="0%" y1="0%" x2="100%" y2="100%"><stop offset="30%" stop-color="#fff" stop-opacity="1"></stop><stop offset="70%" stop-color="#007c8b" stop-opacity="1"></stop></linearGradient></defs><defs><linearGradient id="grad2_0" x1="0%" y1="0%" x2="100%" y2="100%"><stop offset="30%" stop-color="#04f06a" stop-opacity="1"></stop><stop offset="70%" stop-color="#04f06a" stop-opacity="1"></stop></linearGradient></defs><defs><linearGradient id="grad2_1" x1="0%" y1="0%" x2="100%" y2="100%"><stop offset="30%" stop-color="#007c8b" stop-opacity="1"></stop><stop offset="70%" stop-color="#04f06a" stop-opacity="1"></stop></linearGradient></defs><defs><linearGradient id="grad2_2" x1="0%" y1="0%" x2="100%" y2="100%"><stop offset="30%" stop-color="#007c8b" stop-opacity="1"></stop><stop offset="70%" stop-color="#fff" stop-opacity="1"></stop></linearGradient></defs><g transform="translate(450, 0)"><path d="M0 337.5C-46.5 334.7 -92.9 332 -129.2 311.8C-165.4 291.6 -191.5 254.1 -222 222C-252.6 190 -287.7 163.5 -307.7 127.4C-327.6 91.4 -332.6 45.7 -337.5 0L0 0Z" fill="#004360"></path><path d="M0 225C-31 223.2 -61.9 221.3 -86.1 207.9C-110.3 194.4 -127.6 169.4 -148 148C-168.4 126.7 -191.8 109 -205.1 85C-218.4 60.9 -221.7 30.5 -225 0L0 0Z" fill="#00b78e"></path><path d="M0 112.5C-15.5 111.6 -31 110.7 -43.1 103.9C-55.1 97.2 -63.8 84.7 -74 74C-84.2 63.3 -95.9 54.5 -102.6 42.5C-109.2 30.5 -110.9 15.2 -112.5 0L0 0Z" fill="#04f06a"></path></g><g transform="translate(0, 900)"><path d="M0 -337.5C47.5 -333.8 95 -330.1 126.7 -305.8C158.4 -281.5 174.3 -236.6 206.5 -206.5C238.7 -176.4 287.3 -161.1 311.8 -129.2C336.4 -97.2 336.9 -48.6 337.5 0L0 0Z" fill="#004360"></path><path d="M0 -225C31.7 -222.5 63.3 -220.1 84.4 -203.9C105.6 -187.7 116.2 -157.7 137.7 -137.7C159.1 -117.6 191.5 -107.4 207.9 -86.1C224.2 -64.8 224.6 -32.4 225 0L0 0Z" fill="#00b78e"></path><path d="M0 -112.5C15.8 -111.3 31.7 -110 42.2 -101.9C52.8 -93.8 58.1 -78.9 68.8 -68.8C79.6 -58.8 95.8 -53.7 103.9 -43.1C112.1 -32.4 112.3 -16.2 112.5 0L0 0Z" fill="#04f06a"></path></g></svg>