<svg id="visual" viewBox="0 0 900 600" width="900" height="600" xmlns="http://www.w3.org/2000/svg" xmlns:xlink="http://www.w3.org/1999/xlink" version="1.1"><rect x="0" y="0" width="900" height="600" fill="#FFF"></rect><defs><linearGradient id="grad1_0" x1="33.3%" y1="0%" x2="100%" y2="100%"><stop offset="20%" stop-color="#04f06a" stop-opacity="1"></stop><stop offset="80%" stop-color="#04f06a" stop-opacity="1"></stop></linearGradient></defs><defs><linearGradient id="grad1_1" x1="33.3%" y1="0%" x2="100%" y2="100%"><stop offset="20%" stop-color="#04f06a" stop-opacity="1"></stop><stop offset="80%" stop-color="#00a496" stop-opacity="1"></stop></linearGradient></defs><defs><linearGradient id="grad1_2" x1="33.3%" y1="0%" x2="100%" y2="100%"><stop offset="20%" stop-color="#005576" stop-opacity="1"></stop><stop offset="80%" stop-color="#00a496" stop-opacity="1"></stop></linearGradient></defs><defs><linearGradient id="grad1_3" x1="33.3%" y1="0%" x2="100%" y2="100%"><stop offset="20%" stop-color="#005576" stop-opacity="1"></stop><stop offset="80%" stop-color="#FFF" stop-opacity="1"></stop></linearGradient></defs><defs><linearGradient id="grad2_0" x1="0%" y1="0%" x2="66.7%" y2="100%"><stop offset="20%" stop-color="#04f06a" stop-opacity="1"></stop><stop offset="80%" stop-color="#04f06a" stop-opacity="1"></stop></linearGradient></defs><defs><linearGradient id="grad2_1" x1="0%" y1="0%" x2="66.7%" y2="100%"><stop offset="20%" stop-color="#00a496" stop-opacity="1"></stop><stop offset="80%" stop-color="#04f06a" stop-opacity="1"></stop></linearGradient></defs><defs><linearGradient id="grad2_2" x1="0%" y1="0%" x2="66.7%" y2="100%"><stop offset="20%" stop-color="#00a496" stop-opacity="1"></stop><stop offset="80%" stop-color="#005576" stop-opacity="1"></stop></linearGradient></defs><defs><linearGradient id="grad2_3" x1="0%" y1="0%" x2="66.7%" y2="100%"><stop offset="20%" stop-color="#FFF" stop-opacity="1"></stop><stop offset="80%" stop-color="#005576" stop-opacity="1"></stop></linearGradient></defs><g transform="translate(900, 0)"><path d="M0 324.5C-33.8 299.8 -67.6 275.1 -109.1 263.3C-150.6 251.5 -199.8 252.6 -229.5 229.5C-259.1 206.3 -269.2 159 -281.8 116.7C-294.4 74.4 -309.4 37.2 -324.5 0L0 0Z" fill="#27272a"></path><path d="M0 243.4C-25.3 224.9 -50.7 206.3 -81.8 197.5C-112.9 188.6 -149.8 189.4 -172.1 172.1C-194.3 154.7 -201.9 119.2 -211.3 87.5C-220.8 55.8 -232.1 27.9 -243.4 0L0 0Z" fill="#007c90"></path><path d="M0 162.2C-16.9 149.9 -33.8 137.6 -54.5 131.7C-75.3 125.7 -99.9 126.3 -114.7 114.7C-129.6 103.2 -134.6 79.5 -140.9 58.4C-147.2 37.2 -154.7 18.6 -162.2 0L0 0Z" fill="#00cb89"></path><path d="M0 81.1C-8.4 75 -16.9 68.8 -27.3 65.8C-37.6 62.9 -49.9 63.1 -57.4 57.4C-64.8 51.6 -67.3 39.7 -70.4 29.2C-73.6 18.6 -77.4 9.3 -81.1 0L0 0Z" fill="#04f06a"></path></g><g transform="translate(0, 600)"><path d="M0 -324.5C39.5 -303.7 79 -282.9 107.2 -258.7C135.3 -234.5 152 -206.8 186.7 -186.7C221.3 -166.6 273.8 -154 299.8 -124.2C325.8 -94.3 325.1 -47.2 324.5 0L0 0Z" fill="#00314f"></path><path d="M0 -243.4C29.6 -227.8 59.3 -212.2 80.4 -194C101.5 -175.8 114 -155.1 140 -140C166 -124.9 205.4 -115.5 224.8 -93.1C244.3 -70.7 243.8 -35.4 243.4 0L0 0Z" fill="#007c90"></path><path d="M0 -162.2C19.8 -151.9 39.5 -141.5 53.6 -129.3C67.6 -117.2 76 -103.4 93.3 -93.3C110.7 -83.3 136.9 -77 149.9 -62.1C162.9 -47.2 162.6 -23.6 162.2 0L0 0Z" fill="#00cb89"></path><path d="M0 -81.1C9.9 -75.9 19.8 -70.7 26.8 -64.7C33.8 -58.6 38 -51.7 46.7 -46.7C55.3 -41.6 68.5 -38.5 74.9 -31C81.4 -23.6 81.3 -11.8 81.1 0L0 0Z" fill="#04f06a"></path></g></svg>