<svg id="visual" viewBox="0 0 900 900" width="100%" height="100%" xmlns="http://www.w3.org/2000/svg" xmlns:xlink="http://www.w3.org/1999/xlink" version="1.1"><rect x="0" y="0" width="900" height="900" fill="#fff"></rect><defs><linearGradient id="grad1_0" x1="0%" y1="0%" x2="100%" y2="100%"><stop offset="30%" stop-color="#04f06a" stop-opacity="1"></stop><stop offset="70%" stop-color="#04f06a" stop-opacity="1"></stop></linearGradient></defs><defs><linearGradient id="grad1_1" x1="0%" y1="0%" x2="100%" y2="100%"><stop offset="30%" stop-color="#04f06a" stop-opacity="1"></stop><stop offset="70%" stop-color="#00a492" stop-opacity="1"></stop></linearGradient></defs><defs><linearGradient id="grad1_2" x1="0%" y1="0%" x2="100%" y2="100%"><stop offset="30%" stop-color="#005672" stop-opacity="1"></stop><stop offset="70%" stop-color="#00a492" stop-opacity="1"></stop></linearGradient></defs><defs><linearGradient id="grad1_3" x1="0%" y1="0%" x2="100%" y2="100%"><stop offset="30%" stop-color="#005672" stop-opacity="1"></stop><stop offset="70%" stop-color="#fff" stop-opacity="1"></stop></linearGradient></defs><defs><linearGradient id="grad2_0" x1="0%" y1="0%" x2="100%" y2="100%"><stop offset="30%" stop-color="#04f06a" stop-opacity="1"></stop><stop offset="70%" stop-color="#04f06a" stop-opacity="1"></stop></linearGradient></defs><defs><linearGradient id="grad2_1" x1="0%" y1="0%" x2="100%" y2="100%"><stop offset="30%" stop-color="#00a492" stop-opacity="1"></stop><stop offset="70%" stop-color="#04f06a" stop-opacity="1"></stop></linearGradient></defs><defs><linearGradient id="grad2_2" x1="0%" y1="0%" x2="100%" y2="100%"><stop offset="30%" stop-color="#00a492" stop-opacity="1"></stop><stop offset="70%" stop-color="#005672" stop-opacity="1"></stop></linearGradient></defs><defs><linearGradient id="grad2_3" x1="0%" y1="0%" x2="100%" y2="100%"><stop offset="30%" stop-color="#fff" stop-opacity="1"></stop><stop offset="70%" stop-color="#005672" stop-opacity="1"></stop></linearGradient></defs><g transform="translate(900, 0)"><path d="M0 413.7C-52.5 404.8 -105.1 396 -156.5 377.9C-208 359.7 -258.3 332.2 -292.5 292.5C-326.7 252.8 -344.7 200.8 -362.2 150C-379.7 99.2 -396.7 49.6 -413.7 0L0 0Z" fill="#00324c"></path><path d="M0 310.2C-39.4 303.6 -78.8 297 -117.4 283.4C-156 269.8 -193.7 249.2 -219.4 219.4C-245 189.6 -258.5 150.6 -271.6 112.5C-284.7 74.4 -297.5 37.2 -310.2 0L0 0Z" fill="#007c8b"></path><path d="M0 206.8C-26.3 202.4 -52.5 198 -78.3 188.9C-104 179.9 -129.2 166.1 -146.2 146.3C-163.3 126.4 -172.3 100.4 -181.1 75C-189.8 49.6 -198.3 24.8 -206.8 0L0 0Z" fill="#00cb87"></path><path d="M0 103.4C-13.1 101.2 -26.3 99 -39.1 94.5C-52 89.9 -64.6 83.1 -73.1 73.1C-81.7 63.2 -86.2 50.2 -90.5 37.5C-94.9 24.8 -99.2 12.4 -103.4 0L0 0Z" fill="#04f06a"></path></g><g transform="translate(0, 900)"><path d="M0 -413.7C54.9 -409.1 109.7 -404.6 158.3 -382.2C206.9 -359.8 249.2 -319.5 275.8 -275.8C302.3 -232 313.2 -184.7 333.5 -138.1C353.9 -91.6 383.8 -45.8 413.7 0L0 0Z" fill="#00324c"></path><path d="M0 -310.2C41.1 -306.8 82.3 -303.4 118.7 -286.6C155.2 -269.8 186.9 -239.7 206.8 -206.8C226.8 -174 234.9 -138.5 250.1 -103.6C265.4 -68.7 287.8 -34.3 310.2 0L0 0Z" fill="#007c8b"></path><path d="M0 -206.8C27.4 -204.6 54.9 -202.3 79.1 -191.1C103.4 -179.9 124.6 -159.8 137.9 -137.9C151.2 -116 156.6 -92.3 166.8 -69.1C176.9 -45.8 191.9 -22.9 206.8 0L0 0Z" fill="#00cb87"></path><path d="M0 -103.4C13.7 -102.3 27.4 -101.1 39.6 -95.5C51.7 -89.9 62.3 -79.9 68.9 -68.9C75.6 -58 78.3 -46.2 83.4 -34.5C88.5 -22.9 95.9 -11.4 103.4 0L0 0Z" fill="#04f06a"></path></g></svg>