<svg id="visual" viewBox="0 0 960 540" width="960" height="540" xmlns="http://www.w3.org/2000/svg" xmlns:xlink="http://www.w3.org/1999/xlink" version="1.1"><rect x="0" y="0" width="960" height="540" fill="#001122"></rect><defs><linearGradient id="grad1_0" x1="43.8%" y1="0%" x2="100%" y2="100%"><stop offset="14.444444444444446%" stop-color="#04f06a" stop-opacity="1"></stop><stop offset="85.55555555555554%" stop-color="#04f06a" stop-opacity="1"></stop></linearGradient></defs><defs><linearGradient id="grad1_1" x1="43.8%" y1="0%" x2="100%" y2="100%"><stop offset="14.444444444444446%" stop-color="#04f06a" stop-opacity="1"></stop><stop offset="85.55555555555554%" stop-color="#00a496" stop-opacity="1"></stop></linearGradient></defs><defs><linearGradient id="grad1_2" x1="43.8%" y1="0%" x2="100%" y2="100%"><stop offset="14.444444444444446%" stop-color="#005576" stop-opacity="1"></stop><stop offset="85.55555555555554%" stop-color="#00a496" stop-opacity="1"></stop></linearGradient></defs><defs><linearGradient id="grad1_3" x1="43.8%" y1="0%" x2="100%" y2="100%"><stop offset="14.444444444444446%" stop-color="#005576" stop-opacity="1"></stop><stop offset="85.55555555555554%" stop-color="#001122" stop-opacity="1"></stop></linearGradient></defs><defs><linearGradient id="grad2_0" x1="0%" y1="0%" x2="56.3%" y2="100%"><stop offset="14.444444444444446%" stop-color="#04f06a" stop-opacity="1"></stop><stop offset="85.55555555555554%" stop-color="#04f06a" stop-opacity="1"></stop></linearGradient></defs><defs><linearGradient id="grad2_1" x1="0%" y1="0%" x2="56.3%" y2="100%"><stop offset="14.444444444444446%" stop-color="#00a496" stop-opacity="1"></stop><stop offset="85.55555555555554%" stop-color="#04f06a" stop-opacity="1"></stop></linearGradient></defs><defs><linearGradient id="grad2_2" x1="0%" y1="0%" x2="56.3%" y2="100%"><stop offset="14.444444444444446%" stop-color="#00a496" stop-opacity="1"></stop><stop offset="85.55555555555554%" stop-color="#005576" stop-opacity="1"></stop></linearGradient></defs><defs><linearGradient id="grad2_3" x1="0%" y1="0%" x2="56.3%" y2="100%"><stop offset="14.444444444444446%" stop-color="#001122" stop-opacity="1"></stop><stop offset="85.55555555555554%" stop-color="#005576" stop-opacity="1"></stop></linearGradient></defs><g transform="translate(960, 0)"><path d="M0 269C-31.8 279.2 -63.6 289.5 -91.8 282.5C-120 275.5 -144.5 251.2 -166.9 229.8C-189.4 208.3 -209.6 189.7 -230.6 167.5C-251.5 145.4 -273.1 119.7 -280.6 91.2C-288.1 62.7 -281.5 31.3 -275 0L0 0Z" fill="#00314f"></path><path d="M0 201.8C-23.9 209.4 -47.7 217.1 -68.8 211.8C-90 206.6 -108.4 188.4 -125.2 172.3C-142 156.2 -157.2 142.3 -172.9 125.6C-188.6 109 -204.8 89.8 -210.4 68.4C-216.1 47 -211.2 23.5 -206.2 0L0 0Z" fill="#007c90"></path><path d="M0 134.5C-15.9 139.6 -31.8 144.7 -45.9 141.2C-60 137.7 -72.3 125.6 -83.5 114.9C-94.7 104.2 -104.8 94.8 -115.3 83.8C-125.7 72.7 -136.5 59.8 -140.3 45.6C-144 31.3 -140.8 15.7 -137.5 0L0 0Z" fill="#00cb89"></path><path d="M0 67.3C-8 69.8 -15.9 72.4 -22.9 70.6C-30 68.9 -36.1 62.8 -41.7 57.4C-47.3 52.1 -52.4 47.4 -57.6 41.9C-62.9 36.3 -68.3 29.9 -70.1 22.8C-72 15.7 -70.4 7.8 -68.7 0L0 0Z" fill="#04f06a"></path></g><g transform="translate(0, 540)"><path d="M0 -276C28 -271.6 56 -267.3 84.7 -260.6C113.4 -253.9 142.8 -244.9 165.8 -228.1C188.7 -211.3 205.1 -186.7 224.9 -163.4C244.7 -140.1 268 -118.2 280.6 -91.2C293.1 -64.2 295.1 -32.1 297 0L0 0Z" fill="#00314f"></path><path d="M0 -207C21 -203.7 42 -200.4 63.5 -195.4C85 -190.4 107.1 -183.7 124.3 -171.1C141.5 -158.5 153.8 -140 168.7 -122.6C183.5 -105.1 201 -88.6 210.4 -68.4C219.9 -48.1 221.3 -24.1 222.8 0L0 0Z" fill="#007c90"></path><path d="M0 -138C14 -135.8 28 -133.6 42.3 -130.3C56.7 -127 71.4 -122.5 82.9 -114.1C94.3 -105.7 102.5 -93.3 112.5 -81.7C122.4 -70.1 134 -59.1 140.3 -45.6C146.6 -32.1 147.5 -16 148.5 0L0 0Z" fill="#00cb89"></path><path d="M0 -69C7 -67.9 14 -66.8 21.2 -65.1C28.3 -63.5 35.7 -61.2 41.4 -57C47.2 -52.8 51.3 -46.7 56.2 -40.9C61.2 -35 67 -29.5 70.1 -22.8C73.3 -16 73.8 -8 74.3 0L0 0Z" fill="#04f06a"></path></g></svg>