<svg id="visual" viewBox="0 0 900 600" width="900" height="600" xmlns="http://www.w3.org/2000/svg" xmlns:xlink="http://www.w3.org/1999/xlink" version="1.1"><rect x="0" y="0" width="900" height="600" fill="#ffffff"></rect><defs><linearGradient id="grad1_0" x1="33.3%" y1="0%" x2="100%" y2="100%"><stop offset="20%" stop-color="#000000" stop-opacity="1"></stop><stop offset="80%" stop-color="#000000" stop-opacity="1"></stop></linearGradient></defs><defs><linearGradient id="grad1_1" x1="33.3%" y1="0%" x2="100%" y2="100%"><stop offset="20%" stop-color="#000000" stop-opacity="1"></stop><stop offset="80%" stop-color="#4e4e4e" stop-opacity="1"></stop></linearGradient></defs><defs><linearGradient id="grad1_2" x1="33.3%" y1="0%" x2="100%" y2="100%"><stop offset="20%" stop-color="#a2a2a2" stop-opacity="1"></stop><stop offset="80%" stop-color="#4e4e4e" stop-opacity="1"></stop></linearGradient></defs><defs><linearGradient id="grad1_3" x1="33.3%" y1="0%" x2="100%" y2="100%"><stop offset="20%" stop-color="#a2a2a2" stop-opacity="1"></stop><stop offset="80%" stop-color="#ffffff" stop-opacity="1"></stop></linearGradient></defs><defs><linearGradient id="grad2_0" x1="0%" y1="0%" x2="66.7%" y2="100%"><stop offset="20%" stop-color="#000000" stop-opacity="1"></stop><stop offset="80%" stop-color="#000000" stop-opacity="1"></stop></linearGradient></defs><defs><linearGradient id="grad2_1" x1="0%" y1="0%" x2="66.7%" y2="100%"><stop offset="20%" stop-color="#4e4e4e" stop-opacity="1"></stop><stop offset="80%" stop-color="#000000" stop-opacity="1"></stop></linearGradient></defs><defs><linearGradient id="grad2_2" x1="0%" y1="0%" x2="66.7%" y2="100%"><stop offset="20%" stop-color="#4e4e4e" stop-opacity="1"></stop><stop offset="80%" stop-color="#a2a2a2" stop-opacity="1"></stop></linearGradient></defs><defs><linearGradient id="grad2_3" x1="0%" y1="0%" x2="66.7%" y2="100%"><stop offset="20%" stop-color="#ffffff" stop-opacity="1"></stop><stop offset="80%" stop-color="#a2a2a2" stop-opacity="1"></stop></linearGradient></defs><g transform="translate(900, 0)"><path d="M0 341C-38.2 318.8 -76.5 296.6 -116.7 281.8C-157 267 -199.2 259.5 -236.9 236.9C-274.6 214.3 -307.7 176.5 -324.8 134.5C-341.9 92.5 -342.9 46.3 -344 0L0 0Z" fill="#d0d0d0"></path><path d="M0 255.8C-28.7 239.1 -57.4 222.5 -87.5 211.3C-117.7 200.2 -149.4 194.6 -177.7 177.7C-205.9 160.7 -230.8 132.4 -243.6 100.9C-256.4 69.4 -257.2 34.7 -258 0L0 0Z" fill="#777777"></path><path d="M0 170.5C-19.1 159.4 -38.2 148.3 -58.4 140.9C-78.5 133.5 -99.6 129.7 -118.4 118.4C-137.3 107.1 -153.8 88.3 -162.4 67.3C-170.9 46.3 -171.5 23.1 -172 0L0 0Z" fill="#292929"></path><path d="M0 85.3C-9.6 79.7 -19.1 74.2 -29.2 70.4C-39.2 66.7 -49.8 64.9 -59.2 59.2C-68.6 53.6 -76.9 44.1 -81.2 33.6C-85.5 23.1 -85.7 11.6 -86 0L0 0Z" fill="#000000"></path></g><g transform="translate(0, 600)"><path d="M0 -331C44.1 -326.6 88.1 -322.2 125.5 -303C162.9 -283.8 193.6 -249.8 216.4 -216.4C239.2 -182.9 254.1 -150 275.3 -114C296.5 -78.1 324 -39 351.5 0L0 0Z" fill="#d0d0d0"></path><path d="M0 -248.2C33.1 -245 66.1 -241.7 94.1 -227.3C122.2 -212.9 145.2 -187.4 162.3 -162.3C179.4 -137.2 190.6 -112.5 206.5 -85.5C222.4 -58.6 243 -29.3 263.7 0L0 0Z" fill="#777777"></path><path d="M0 -165.5C22 -163.3 44.1 -161.1 62.8 -151.5C81.4 -141.9 96.8 -124.9 108.2 -108.2C119.6 -91.5 127.1 -75 137.7 -57C148.3 -39 162 -19.5 175.8 0L0 0Z" fill="#292929"></path><path d="M0 -82.7C11 -81.7 22 -80.6 31.4 -75.8C40.7 -71 48.4 -62.5 54.1 -54.1C59.8 -45.7 63.5 -37.5 68.8 -28.5C74.1 -19.5 81 -9.8 87.9 0L0 0Z" fill="#000000"></path></g></svg>