<svg id="visual" viewBox="0 0 900 600" width="900" height="600" xmlns="http://www.w3.org/2000/svg" xmlns:xlink="http://www.w3.org/1999/xlink" version="1.1"><rect x="0" y="0" width="900" height="600" fill="#001122"></rect><defs><linearGradient id="grad1_0" x1="33.3%" y1="0%" x2="100%" y2="100%"><stop offset="20%" stop-color="#009473" stop-opacity="1"></stop><stop offset="80%" stop-color="#009473" stop-opacity="1"></stop></linearGradient></defs><defs><linearGradient id="grad1_1" x1="33.3%" y1="0%" x2="100%" y2="100%"><stop offset="20%" stop-color="#009473" stop-opacity="1"></stop><stop offset="80%" stop-color="#00666d" stop-opacity="1"></stop></linearGradient></defs><defs><linearGradient id="grad1_2" x1="33.3%" y1="0%" x2="100%" y2="100%"><stop offset="20%" stop-color="#003a4f" stop-opacity="1"></stop><stop offset="80%" stop-color="#00666d" stop-opacity="1"></stop></linearGradient></defs><defs><linearGradient id="grad1_3" x1="33.3%" y1="0%" x2="100%" y2="100%"><stop offset="20%" stop-color="#003a4f" stop-opacity="1"></stop><stop offset="80%" stop-color="#001122" stop-opacity="1"></stop></linearGradient></defs><defs><linearGradient id="grad2_0" x1="0%" y1="0%" x2="66.7%" y2="100%"><stop offset="20%" stop-color="#009473" stop-opacity="1"></stop><stop offset="80%" stop-color="#009473" stop-opacity="1"></stop></linearGradient></defs><defs><linearGradient id="grad2_1" x1="0%" y1="0%" x2="66.7%" y2="100%"><stop offset="20%" stop-color="#00666d" stop-opacity="1"></stop><stop offset="80%" stop-color="#009473" stop-opacity="1"></stop></linearGradient></defs><defs><linearGradient id="grad2_2" x1="0%" y1="0%" x2="66.7%" y2="100%"><stop offset="20%" stop-color="#00666d" stop-opacity="1"></stop><stop offset="80%" stop-color="#003a4f" stop-opacity="1"></stop></linearGradient></defs><defs><linearGradient id="grad2_3" x1="0%" y1="0%" x2="66.7%" y2="100%"><stop offset="20%" stop-color="#001122" stop-opacity="1"></stop><stop offset="80%" stop-color="#003a4f" stop-opacity="1"></stop></linearGradient></defs><g transform="translate(900, 0)"><path d="M0 324.5C-27.6 288.2 -55.2 251.9 -100.6 243C-146.1 234 -209.5 252.4 -229.5 229.5C-249.4 206.5 -226.1 142.3 -234.7 97.2C-243.3 52.1 -283.9 26 -324.5 0L0 0Z" fill="#002539"></path><path d="M0 243.4C-20.7 216.2 -41.4 189 -75.5 182.2C-109.6 175.5 -157.1 189.3 -172.1 172.1C-187.1 154.9 -169.5 106.7 -176 72.9C-182.5 39.1 -212.9 19.5 -243.4 0L0 0Z" fill="#005060"></path><path d="M0 162.2C-13.8 144.1 -27.6 126 -50.3 121.5C-73.1 117 -104.7 126.2 -114.7 114.7C-124.7 103.3 -113 71.2 -117.3 48.6C-121.6 26 -141.9 13 -162.2 0L0 0Z" fill="#007d73"></path><path d="M0 81.1C-6.9 72.1 -13.8 63 -25.2 60.7C-36.5 58.5 -52.4 63.1 -57.4 57.4C-62.4 51.6 -56.5 35.6 -58.7 24.3C-60.8 13 -71 6.5 -81.1 0L0 0Z" fill="#009473"></path></g><g transform="translate(0, 600)"><path d="M0 -324.5C51.2 -328.6 102.4 -332.7 124.2 -299.8C145.9 -266.9 138.2 -197.1 165.5 -165.5C192.7 -133.8 255 -140.2 287.3 -119C319.7 -97.8 322.1 -48.9 324.5 0L0 0Z" fill="#002539"></path><path d="M0 -243.4C38.4 -246.4 76.8 -249.5 93.1 -224.8C109.4 -200.2 103.6 -147.9 124.1 -124.1C144.5 -100.3 191.2 -105.2 215.5 -89.3C239.7 -73.3 241.6 -36.7 243.4 0L0 0Z" fill="#005060"></path><path d="M0 -162.2C25.6 -164.3 51.2 -166.3 62.1 -149.9C73 -133.5 69.1 -98.6 82.7 -82.7C96.4 -66.9 127.5 -70.1 143.7 -59.5C159.8 -48.9 161 -24.4 162.2 0L0 0Z" fill="#007d73"></path><path d="M0 -81.1C12.8 -82.1 25.6 -83.2 31 -74.9C36.5 -66.7 34.5 -49.3 41.4 -41.4C48.2 -33.4 63.7 -35.1 71.8 -29.8C79.9 -24.4 80.5 -12.2 81.1 0L0 0Z" fill="#009473"></path></g></svg>