<svg id="visual" viewBox="0 0 900 600" width="900" height="600" xmlns="http://www.w3.org/2000/svg" xmlns:xlink="http://www.w3.org/1999/xlink" version="1.1"><rect x="0" y="0" width="900" height="600" fill="#001122"></rect><defs><linearGradient id="grad1_0" x1="33.3%" y1="0%" x2="100%" y2="100%"><stop offset="20%" stop-color="#009473" stop-opacity="1"></stop><stop offset="80%" stop-color="#009473" stop-opacity="1"></stop></linearGradient></defs><defs><linearGradient id="grad1_1" x1="33.3%" y1="0%" x2="100%" y2="100%"><stop offset="20%" stop-color="#009473" stop-opacity="1"></stop><stop offset="80%" stop-color="#00666d" stop-opacity="1"></stop></linearGradient></defs><defs><linearGradient id="grad1_2" x1="33.3%" y1="0%" x2="100%" y2="100%"><stop offset="20%" stop-color="#003a4f" stop-opacity="1"></stop><stop offset="80%" stop-color="#00666d" stop-opacity="1"></stop></linearGradient></defs><defs><linearGradient id="grad1_3" x1="33.3%" y1="0%" x2="100%" y2="100%"><stop offset="20%" stop-color="#003a4f" stop-opacity="1"></stop><stop offset="80%" stop-color="#001122" stop-opacity="1"></stop></linearGradient></defs><defs><linearGradient id="grad2_0" x1="0%" y1="0%" x2="66.7%" y2="100%"><stop offset="20%" stop-color="#009473" stop-opacity="1"></stop><stop offset="80%" stop-color="#009473" stop-opacity="1"></stop></linearGradient></defs><defs><linearGradient id="grad2_1" x1="0%" y1="0%" x2="66.7%" y2="100%"><stop offset="20%" stop-color="#00666d" stop-opacity="1"></stop><stop offset="80%" stop-color="#009473" stop-opacity="1"></stop></linearGradient></defs><defs><linearGradient id="grad2_2" x1="0%" y1="0%" x2="66.7%" y2="100%"><stop offset="20%" stop-color="#00666d" stop-opacity="1"></stop><stop offset="80%" stop-color="#003a4f" stop-opacity="1"></stop></linearGradient></defs><defs><linearGradient id="grad2_3" x1="0%" y1="0%" x2="66.7%" y2="100%"><stop offset="20%" stop-color="#001122" stop-opacity="1"></stop><stop offset="80%" stop-color="#003a4f" stop-opacity="1"></stop></linearGradient></defs><g transform="translate(900, 0)"><path d="M0 324.5C-51.3 329 -102.6 333.6 -124.2 299.8C-145.8 266 -137.6 194 -160.5 160.5C-183.4 127 -237.3 132.1 -269.8 111.7C-302.3 91.4 -313.4 45.7 -324.5 0L0 0Z" fill="#002539"></path><path d="M0 243.4C-38.5 246.8 -76.9 250.2 -93.1 224.8C-109.3 199.5 -103.2 145.5 -120.4 120.4C-137.5 95.3 -178 99.1 -202.3 83.8C-226.7 68.6 -235 34.3 -243.4 0L0 0Z" fill="#005060"></path><path d="M0 162.2C-25.6 164.5 -51.3 166.8 -62.1 149.9C-72.9 133 -68.8 97 -80.3 80.3C-91.7 63.5 -118.6 66 -134.9 55.9C-151.1 45.7 -156.7 22.9 -162.2 0L0 0Z" fill="#007d73"></path><path d="M0 81.1C-12.8 82.3 -25.6 83.4 -31 74.9C-36.4 66.5 -34.4 48.5 -40.1 40.1C-45.8 31.8 -59.3 33 -67.4 27.9C-75.6 22.9 -78.3 11.4 -81.1 0L0 0Z" fill="#009473"></path></g><g transform="translate(0, 600)"><path d="M0 -324.5C43.7 -309.6 87.3 -294.7 109.4 -264.2C131.6 -233.7 132.1 -187.7 166.2 -166.2C200.2 -144.7 267.8 -147.8 299.8 -124.2C331.8 -100.6 328.1 -50.3 324.5 0L0 0Z" fill="#002539"></path><path d="M0 -243.4C32.8 -232.2 65.5 -221 82.1 -198.2C98.7 -175.3 99.1 -140.7 124.6 -124.6C150.2 -108.5 200.9 -110.8 224.8 -93.1C248.8 -75.4 246.1 -37.7 243.4 0L0 0Z" fill="#005060"></path><path d="M0 -162.2C21.8 -154.8 43.7 -147.4 54.7 -132.1C65.8 -116.9 66.1 -93.8 83.1 -83.1C100.1 -72.3 133.9 -73.9 149.9 -62.1C165.9 -50.3 164.1 -25.1 162.2 0L0 0Z" fill="#007d73"></path><path d="M0 -81.1C10.9 -77.4 21.8 -73.7 27.4 -66.1C32.9 -58.4 33 -46.9 41.5 -41.5C50.1 -36.2 67 -36.9 74.9 -31C82.9 -25.1 82 -12.6 81.1 0L0 0Z" fill="#009473"></path></g></svg>