<svg  xmlns="http://www.w3.org/2000/svg" viewBox="0 0 30 31"><path d="M9.866 21.476h4.423v.715c0 2.47.842 4.392 1.975 5.848-.627.835-1.303 1.301-1.975 1.301-1.71 0-3.43-2.995-4.34-7.443l-.083-.42v-.002Zm-.329-2.144h4.752v-2.145c0-1.215.965-2.078 2.012-2.173 1.104-.1 2.12-.472 2.977-.916a36.691 36.691 0 0 0-.098-1.916H9.396l-.047.698a37.191 37.191 0 0 0 .188 6.45v.002Zm18.752-7.15c.177.874.275 1.778.285 2.703-1.9-.41-3.45-1.534-4.235-2.208a2.25 2.25 0 0 0-1.01-.495h4.96ZM1.525 21.475h6.151c.522 2.978 1.404 5.511 2.56 7.283a14.328 14.328 0 0 1-8.5-6.884l-.21-.398ZM.287 12.181h6.956a40.374 40.374 0 0 0 .047 6.32l.083.83H.655a14.383 14.383 0 0 1-.368-7.15ZM18.494 1.565l-.154-.243a14.32 14.32 0 0 1 9.336 8.714h-6.56c-.45-3.455-1.367-6.423-2.624-8.47l.002-.001Zm-8.434-.189.175-.053c-1.258 1.93-2.193 4.76-2.69 8.085l-.087.63H.9a14.34 14.34 0 0 1 9.16-8.663v.001ZM14.29.744c1.882 0 3.778 3.635 4.59 8.841l.066.45H9.632c.771-5.446 2.72-9.29 4.657-9.29Zm14.998 15.694c-2.724-.246-4.905-1.84-5.878-2.674a.858.858 0 0 0-1.1 0c-.974.834-3.157 2.428-5.88 2.674a.768.768 0 0 0-.713.748v5.005c0 6.038 5.848 8.173 6.96 8.525a.6.6 0 0 0 .365 0C24.155 30.364 30 28.228 30 22.19v-5.004a.77.77 0 0 0-.714-.748h.001Z" /></svg>