<svg fill="none" xmlns="http://www.w3.org/2000/svg" viewBox="0 0 129 23"><path d="M9.52.636c2.084 0 3.97.416 5.657 1.25a9.82 9.82 0 0 1 4.031 3.625c1 1.583 1.5 3.5 1.5 5.75 0 1.541-.26 3-.781 4.375a11.025 11.025 0 0 1-2.157 3.594 9.883 9.883 0 0 1-3.374 2.437c-1.313.583-2.782.875-4.407.875-.958 0-1.979-.042-3.062-.125a37.79 37.79 0 0 1-3.125-.313 40.355 40.355 0 0 1-2.813-.437V1.511A73.57 73.57 0 0 1 5.208.917 34.8 34.8 0 0 1 9.521.636Zm.188 5.468c-.48 0-.98.042-1.5.125-.5.063-.958.146-1.375.25V16.7c.48.145.969.25 1.469.312.5.041.969.062 1.406.062 1.063 0 1.958-.24 2.688-.718a4.863 4.863 0 0 0 1.718-2c.396-.834.594-1.76.594-2.782 0-1.625-.438-2.937-1.313-3.937-.854-1.021-2.083-1.532-3.687-1.532ZM31.088.833v21.24h-5.91V.833h5.91ZM43.384.667c1.23 0 2.438.156 3.625.469 1.209.291 2.177.687 2.906 1.187V7.98a24.475 24.475 0 0 0-2.656-1.343c-.875-.396-1.906-.594-3.094-.594-.687 0-1.28.104-1.78.312-.5.209-.75.553-.75 1.032 0 .52.301.916.905 1.187.605.25 1.344.542 2.22.875l2.25.844c1.52.583 2.593 1.375 3.218 2.375.646 1 .969 2 .969 3 0 1.333-.386 2.52-1.157 3.563-.77 1.02-1.812 1.833-3.125 2.437-1.312.583-2.78.875-4.406.875-1.25 0-2.49-.219-3.719-.656-1.229-.438-2.302-.98-3.218-1.625v-5.656c1 .75 2.073 1.364 3.218 1.843 1.167.48 2.334.719 3.5.719.73 0 1.313-.083 1.75-.25.459-.188.688-.5.688-.938 0-.312-.167-.583-.5-.812-.333-.23-.781-.427-1.344-.594l-2.969-.937c-1.166-.375-2.072-.886-2.718-1.531-.646-.646-1.094-1.365-1.344-2.157a8.35 8.35 0 0 1-.375-2.469c0-1.479.375-2.718 1.125-3.718.75-1.021 1.73-1.792 2.937-2.313a9.608 9.608 0 0 1 3.844-.781ZM72.672 1.136v5.156h-6.157V21.98h-5.843V6.292h-6.157V1.136h18.157ZM82.583.833v21.24h-5.91V.833h5.91ZM108.348 1.136l-9.688 21.25h-2.937l-9.688-21.25h6.813l4.344 11.5 4.343-11.5h6.813ZM127.229 9.292v4.375h-8.312v3.406h9.406v5h-15.25V1.136h15.25v4.843h-9.406v3.313h8.312Z" fill="#000"/></svg>