<svg xmlns="http://www.w3.org/2000/svg" viewBox="0 0 30 31"><path d="M15 21.744a1.5 1.5 0 0 1 1.49 1.326l.01.174v2.377l.44-.435a1.5 1.5 0 0 1 1.98-.126l.141.124a1.5 1.5 0 0 1 .125 1.98l-.125.143-3 3-.066.062-.102.083-.166.108-.17.08-.157.053-.177.036-.134.015h-.178l-.087-.007-.174-.03-.162-.05-.122-.05-.147-.079-.144-.1a1.537 1.537 0 0 1-.135-.12l-3-3a1.5 1.5 0 0 1 1.98-2.248l.141.124.44.44v-2.38a1.5 1.5 0 0 1 1.324-1.49l.176-.01Zm9.44-10.062a1.5 1.5 0 0 1 1.98-.124l.142.124 3 3 .061.067.083.102.108.166.081.17.053.159.037.175.015.135v.177l-.009.087-.03.174-.05.162-.05.123-.079.146-.11.158-.11.123-3 3a1.5 1.5 0 0 1-2.247-1.98l.126-.143.435-.438H22.5a1.5 1.5 0 0 1-1.49-1.326l-.01-.176a1.5 1.5 0 0 1 1.325-1.49l.175-.008h2.378l-.438-.44a1.5 1.5 0 0 1-.126-1.98l.126-.143Zm-21 0a1.5 1.5 0 0 1 2.245 1.98l-.124.143-.44.44h2.38a1.5 1.5 0 0 1 1.489 1.324l.01.174a1.5 1.5 0 0 1-1.326 1.49l-.174.01H5.123l.438.439a1.5 1.5 0 0 1 .124 1.98l-.124.143a1.5 1.5 0 0 1-1.98.124l-.141-.124-3-3-.146-.169-.108-.166-.08-.17-.052-.158-.037-.177-.012-.094L0 15.713l.006-.105.024-.166.045-.168.065-.165.079-.147.1-.144c.038-.048.078-.093.12-.135l3-3ZM15 11.618a4.125 4.125 0 1 1 0 8.25 4.125 4.125 0 0 1 0-8.25ZM14.778.758l.111-.012.195-.002.18.021.206.051.166.066.147.078.156.111.123.11 3 3a1.5 1.5 0 0 1-1.98 2.247l-.14-.124-.44-.44v2.378a1.5 1.5 0 0 1-1.326 1.491l-.174.01a1.5 1.5 0 0 1-1.49-1.325l-.01-.176v-2.38l-.44.442a1.5 1.5 0 0 1-1.98.124l-.141-.124a1.5 1.5 0 0 1-.124-1.98l.124-.143 3-3 .168-.144.165-.108.171-.08.158-.054.175-.037Z"/></svg>