<svg fill="none" xmlns="http://www.w3.org/2000/svg" viewBox="0 0 30 31"><path d="M1.946 1.102A1.124 1.124 0 1 0 .358 2.69l4.905 4.907L.969 12.27l-.066.078-.057.083c-.51.59-.818 1.36-.818 2.203v5.239a4.87 4.87 0 0 0 4.87 4.87h3.746a4.871 4.871 0 0 0 4.87-4.87l-.001-3.36h.667l2.333 2.333v1.027a4.87 4.87 0 0 0 4.87 4.87h1.027l5.67 5.672a1.124 1.124 0 0 0 1.59-1.59L1.947 1.102Zm6.984 10.16-3.98-.002 1.906-2.074 2.072 2.076h.002Zm8.037 1.68 10.935 10.935A4.864 4.864 0 0 0 30 19.873v-5.24a3.35 3.35 0 0 0-.733-2.097 1.12 1.12 0 0 0-.183-.268l-5.458-5.915-.199-.198a3.372 3.372 0 0 0-2.278-.887h-1.263l-.153.01a1.124 1.124 0 0 0 .153 2.238h1.263l.154.01c.258.036.495.16.672.35l3.121 3.386h-5.21a3.375 3.375 0 0 0-2.918 1.681v-.001Z" fill="#fff"/></svg>