<svg width="55" height="55" viewBox="0 0 55 55" fill="none" xmlns="http://www.w3.org/2000/svg">
<rect y="0.298828" width="54.011" height="54.011" rx="3" fill="#1B1B1B"/>
<path d="M8.89746 14.4778V10.0914C8.89746 9.59435 9.3004 9.19141 9.79746 9.19141H14.915C15.7505 9.19141 16.1351 10.231 15.5007 10.7747L10.3832 15.1612C9.79937 15.6616 8.89746 15.2468 8.89746 14.4778Z" fill="white"/>
<path d="M45.1133 40.1315L45.1133 44.518C45.1133 45.015 44.7103 45.418 44.2133 45.418L39.0958 45.418C38.2602 45.418 37.8756 44.3784 38.51 43.8346L43.6276 39.4482C44.2114 38.9478 45.1133 39.3626 45.1133 40.1315Z" fill="#04F06A"/>
<path d="M41.1676 9.19141H36.4697C35.8325 9.19141 35.2334 9.49503 34.8567 10.0089L11.2306 42.2363C10.2621 43.5574 11.2055 45.4188 12.8435 45.4188H17.5415C18.1786 45.4188 18.7777 45.1152 19.1544 44.6013L42.7806 12.3739C43.7491 11.0528 42.8056 9.19141 41.1676 9.19141Z" fill="white"/>
</svg>
